<?xml version="1.0" standalone="no"?>
<!DOCTYPE svg PUBLIC "-//W3C//DTD SVG 20010904//EN"
 "http://www.w3.org/TR/2001/REC-SVG-20010904/DTD/svg10.dtd">
<svg version="1.0" xmlns="http://www.w3.org/2000/svg"
 width="300.000000pt" height="92.000000pt" viewBox="0 0 300.000000 92.000000"
 preserveAspectRatio="xMidYMid meet">

<g transform="translate(0.000000,92.000000) scale(0.100000,-0.100000)"
fill="#000000" stroke="none">
<path d="M560 869 c-218 -37 -377 -258 -340 -471 31 -181 171 -319 350 -347
75 -12 122 -7 207 21 308 104 371 521 110 719 -86 65 -218 96 -327 78z m80
-363 c0 -174 -1 -185 -23 -217 -29 -43 -82 -79 -118 -79 l-29 0 0 177 c0 169
1 178 25 218 16 28 39 50 67 64 81 40 78 45 78 -163z m105 155 c70 -39 96
-138 59 -217 -18 -37 -86 -84 -122 -84 -22 0 -22 3 -22 165 l0 165 28 -6 c15
-4 40 -14 57 -23z"/>
<path d="M1300 677 c-68 -45 -75 -70 -79 -284 l-3 -193 36 0 36 0 0 95 c0 96
0 96 22 84 36 -19 125 -15 156 8 45 34 65 69 70 126 6 70 -23 138 -70 167 -47
28 -124 27 -168 -3z m147 -41 c26 -23 28 -29 28 -99 0 -66 -3 -79 -24 -101
-34 -36 -101 -37 -136 -1 -22 21 -25 33 -25 94 0 60 3 74 26 100 33 40 89 43
131 7z"/>
<path d="M1789 674 c-7 -20 -6 -32 6 -50 18 -27 19 -28 46 -14 22 12 26 59 7
78 -20 20 -48 14 -59 -14z"/>
<path d="M1797 534 c-4 -4 -7 -81 -7 -171 l0 -163 35 0 35 0 -2 168 -3 167
-25 3 c-14 2 -29 0 -33 -4z"/>
<path d="M1679 521 c-86 -27 -109 -71 -109 -216 l0 -105 30 0 30 0 0 113 c0
138 15 173 80 183 24 4 40 12 40 20 0 15 -30 17 -71 5z"/>
<path d="M1995 521 c-58 -25 -84 -93 -85 -223 l0 -98 30 0 30 0 1 103 c0 121
13 168 50 181 37 13 74 1 87 -29 7 -15 12 -74 12 -140 l0 -115 30 0 30 0 0
110 c0 117 -11 160 -49 194 -23 21 -104 31 -136 17z"/>
<path d="M2325 521 c-81 -33 -118 -154 -76 -246 26 -56 53 -77 109 -83 47 -4
122 17 122 35 0 4 -27 8 -61 8 -57 0 -62 2 -95 37 -31 34 -34 43 -34 98 0 51
4 65 25 85 36 37 78 37 111 1 17 -20 23 -21 38 -10 14 10 16 16 6 34 -21 39
-97 60 -145 41z"/>
<path d="M2615 520 c-76 -31 -109 -154 -65 -245 30 -62 87 -87 158 -69 37 10
25 24 -21 24 -54 0 -74 14 -91 65 l-14 40 104 3 104 3 0 32 c-1 102 -94 181
-175 147z m75 -40 c17 -9 40 -58 40 -86 0 -11 -18 -14 -70 -14 l-70 0 0 29 c0
15 9 40 21 55 21 27 48 33 79 16z"/>
</g>
</svg>
